<svg xmlns="http://www.w3.org/2000/svg" viewBox="0 0 1920 1080"><g transform="
          rotate(45 960 540) 
          translate(-925.6180831641266 -520.6601717798212)
          scale(1.9641855032959652)
        "><rect width="1920" height="1080" fill="rgb(246, 238, 255)"></rect><g transform="translate(0, 0)"><path fill="rgb(238, 228, 255)" fill-opacity="1" d="M0,135.349L45.714,146.077C91.429,156.806,182.857,178.263,274.286,173.876C365.714,169.489,457.143,139.258,548.571,122.8C640,106.343,731.429,103.66,822.857,108.856C914.286,114.053,1005.714,127.129,1097.143,128.174C1188.571,129.218,1280,118.231,1371.429,109.146C1462.857,100.061,1554.286,92.879,1645.714,75.427C1737.143,57.974,1828.571,30.252,1874.286,16.39L1920,2.529L1920,1080L1874.286,1080C1828.571,1080,1737.143,1080,1645.714,1080C1554.286,1080,1462.857,1080,1371.429,1080C1280,1080,1188.571,1080,1097.143,1080C1005.714,1080,914.286,1080,822.857,1080C731.429,1080,640,1080,548.571,1080C457.143,1080,365.714,1080,274.286,1080C182.857,1080,91.429,1080,45.714,1080L0,1080Z"></path></g><g transform="translate(0, 216)"><path fill="rgb(230, 218, 255)" fill-opacity="1" d="M0,85.557L45.714,73.934C91.429,62.312,182.857,39.066,274.286,49.037C365.714,59.007,457.143,102.192,548.571,112.483C640,122.773,731.429,100.168,822.857,109.712C914.286,119.257,1005.714,160.951,1097.143,180.853C1188.571,200.755,1280,198.865,1371.429,187.905C1462.857,176.944,1554.286,156.914,1645.714,157.372C1737.143,157.829,1828.571,178.776,1874.286,189.249L1920,199.722L1920,864L1874.286,864C1828.571,864,1737.143,864,1645.714,864C1554.286,864,1462.857,864,1371.429,864C1280,864,1188.571,864,1097.143,864C1005.714,864,914.286,864,822.857,864C731.429,864,640,864,548.571,864C457.143,864,365.714,864,274.286,864C182.857,864,91.429,864,45.714,864L0,864Z"></path></g><g transform="translate(0, 432)"><path fill="rgb(223, 208, 255)" fill-opacity="1" d="M0,42.996L45.714,47.986C91.429,52.975,182.857,62.953,274.286,79.881C365.714,96.809,457.143,120.686,548.571,140.768C640,160.849,731.429,177.134,822.857,171.539C914.286,165.943,1005.714,138.466,1097.143,130.089C1188.571,121.712,1280,132.435,1371.429,143.32C1462.857,154.206,1554.286,165.253,1645.714,142.439C1737.143,119.624,1828.571,62.946,1874.286,34.608L1920,6.269L1920,648L1874.286,648C1828.571,648,1737.143,648,1645.714,648C1554.286,648,1462.857,648,1371.429,648C1280,648,1188.571,648,1097.143,648C1005.714,648,914.286,648,822.857,648C731.429,648,640,648,548.571,648C457.143,648,365.714,648,274.286,648C182.857,648,91.429,648,45.714,648L0,648Z"></path></g><g transform="translate(0, 648)"><path fill="rgb(215, 198, 255)" fill-opacity="1" d="M0,42.026L45.714,50.936C91.429,59.846,182.857,77.666,274.286,105.28C365.714,132.895,457.143,170.303,548.571,175.438C640,180.573,731.429,153.435,822.857,119.863C914.286,86.292,1005.714,46.287,1097.143,43.864C1188.571,41.441,1280,76.601,1371.429,75.77C1462.857,74.94,1554.286,38.12,1645.714,25.419C1737.143,12.718,1828.571,24.137,1874.286,29.847L1920,35.556L1920,432L1874.286,432C1828.571,432,1737.143,432,1645.714,432C1554.286,432,1462.857,432,1371.429,432C1280,432,1188.571,432,1097.143,432C1005.714,432,914.286,432,822.857,432C731.429,432,640,432,548.571,432C457.143,432,365.714,432,274.286,432C182.857,432,91.429,432,45.714,432L0,432Z"></path></g><g transform="translate(0, 864)"><path fill="rgb(207, 188, 255)" fill-opacity="1" d="M0,20.269L45.714,46.196C91.429,72.124,182.857,123.979,274.286,136.194C365.714,148.409,457.143,120.984,548.571,99.789C640,78.594,731.429,63.63,822.857,72.774C914.286,81.918,1005.714,115.171,1097.143,125.815C1188.571,136.46,1280,124.495,1371.429,116.362C1462.857,108.23,1554.286,103.928,1645.714,99.728C1737.143,95.528,1828.571,91.43,1874.286,89.38L1920,87.331L1920,216L1874.286,216C1828.571,216,1737.143,216,1645.714,216C1554.286,216,1462.857,216,1371.429,216C1280,216,1188.571,216,1097.143,216C1005.714,216,914.286,216,822.857,216C731.429,216,640,216,548.571,216C457.143,216,365.714,216,274.286,216C182.857,216,91.429,216,45.714,216L0,216Z"></path></g></g></svg>